<svg xmlns="http://www.w3.org/2000/svg" width="1200" height="280" viewBox="0 0 1200 280">
  <defs>
    <linearGradient id="bg" x1="0%" y1="0%" x2="100%" y2="0%">
      <stop offset="0%" stop-color="#0f2027"/>
      <stop offset="50%" stop-color="#203a43"/>
      <stop offset="100%" stop-color="#2c5364"/>
    </linearGradient>
  </defs>

  <rect width="1200" height="280" fill="url(#bg)"/>

  <path d="M0 245 C170 215 300 260 470 242 C650 222 760 205 930 225 C1040 238 1120 230 1200 210 L1200 280 L0 280 Z"
        fill="#0b1117"/>
  <path d="M0 255 C160 232 300 270 470 252 C650 235 790 218 950 238 C1060 252 1130 240 1200 225 L1200 280 L0 280 Z"
        fill="#101820" opacity="0.9"/>

  <text x="600" y="132"
        text-anchor="middle"
        font-family="Arial, Helvetica, sans-serif"
        font-size="52"
        font-weight="700"
        fill="#ffffff">Md. Ruhul Amin</text>

  <text x="600" y="184"
        text-anchor="middle"
        font-family="Arial, Helvetica, sans-serif"
        font-size="25"
        font-weight="600"
        fill="#ffffff">Computer Science &amp; Engineering Student | Frontend Developer</text>
</svg>